<mxfile host="Electron" modified="2024-07-18T05:24:45.693Z" agent="Mozilla/5.0 (Windows NT 10.0; Win64; x64) AppleWebKit/537.36 (KHTML, like Gecko) draw.io/24.5.3 Chrome/124.0.6367.207 Electron/30.0.6 Safari/537.36" etag="u3qJu2JQr1j6590C8gE_" version="24.5.3" type="device" pages="3">
  <diagram name="Page-1" id="U08i2mYQAlyxhMghuIbF">
    <mxGraphModel dx="4505" dy="3442" grid="1" gridSize="10" guides="1" tooltips="1" connect="1" arrows="1" fold="1" page="1" pageScale="1" pageWidth="1654" pageHeight="1169" math="0" shadow="0">
      <root>
        <mxCell id="0" />
        <mxCell id="1" parent="0" />
        <mxCell id="nSbmwZSb1zf3VBq55A1s-11" style="edgeStyle=orthogonalEdgeStyle;rounded=1;orthogonalLoop=1;jettySize=auto;html=1;exitX=0.065;exitY=0.012;exitDx=0;exitDy=0;entryX=0.164;entryY=-0.021;entryDx=0;entryDy=0;entryPerimeter=0;exitPerimeter=0;endSize=10;" parent="1" source="nSbmwZSb1zf3VBq55A1s-2" target="nSbmwZSb1zf3VBq55A1s-2" edge="1">
          <mxGeometry relative="1" as="geometry">
            <mxPoint x="324" y="640" as="targetPoint" />
            <Array as="points">
              <mxPoint x="264" y="650" />
              <mxPoint x="264" y="600" />
              <mxPoint x="325" y="600" />
              <mxPoint x="325" y="640" />
              <mxPoint x="324" y="640" />
            </Array>
          </mxGeometry>
        </mxCell>
        <mxCell id="nSbmwZSb1zf3VBq55A1s-2" value="Placer + FHIR Server" style="rounded=0;whiteSpace=wrap;html=1;gradientColor=#eb6f6a;fillColor=#f8cdca;strokeColor=#cf8480;fontSize=20;" parent="1" vertex="1">
          <mxGeometry x="224" y="650" width="610" height="110" as="geometry" />
        </mxCell>
        <mxCell id="nSbmwZSb1zf3VBq55A1s-3" value="Filler + FHIR Server" style="rounded=0;whiteSpace=wrap;html=1;gradientColor=#b4b4b4;fillColor=default;strokeColor=#7e7e7e;fontSize=20;spacingLeft=100;" parent="1" vertex="1">
          <mxGeometry x="344" y="880" width="490" height="80" as="geometry" />
        </mxCell>
        <mxCell id="nSbmwZSb1zf3VBq55A1s-4" value="1" style="ellipse;whiteSpace=wrap;html=1;fontStyle=1;fontSize=25;fillColor=#f8cdca;strokeColor=#cf8480;rounded=0;gradientColor=#eb6f6a;" parent="1" vertex="1">
          <mxGeometry x="234" y="768" width="43" height="43" as="geometry" />
        </mxCell>
        <mxCell id="nSbmwZSb1zf3VBq55A1s-5" value="2" style="ellipse;whiteSpace=wrap;html=1;fontStyle=1;fontSize=25;fillColor=#f8c321;strokeColor=#e8b130;rounded=0;gradientColor=#fea601;" parent="1" vertex="1">
          <mxGeometry x="277" y="601" width="43" height="43" as="geometry" />
        </mxCell>
        <mxCell id="nSbmwZSb1zf3VBq55A1s-6" value="Create &lt;i&gt;Request&lt;/i&gt;" style="text;html=1;strokeColor=none;fillColor=default;align=center;verticalAlign=middle;whiteSpace=wrap;rounded=0;fontSize=16;fontStyle=0" parent="1" vertex="1">
          <mxGeometry x="225.5" y="820" width="60" height="30" as="geometry" />
        </mxCell>
        <mxCell id="nSbmwZSb1zf3VBq55A1s-7" value="Select ActivityDefinition at Care Plan Definition Service (optional) &amp;amp; Create &lt;i&gt;Task&lt;/i&gt;" style="text;html=1;strokeColor=none;fillColor=default;align=center;verticalAlign=middle;whiteSpace=wrap;rounded=0;fontSize=16;fontStyle=0" parent="1" vertex="1">
          <mxGeometry x="252.25" y="560" width="235.5" height="40" as="geometry" />
        </mxCell>
        <mxCell id="nSbmwZSb1zf3VBq55A1s-8" style="edgeStyle=orthogonalEdgeStyle;orthogonalLoop=1;jettySize=auto;html=1;exitX=0;exitY=1;exitDx=0;exitDy=0;entryX=0.103;entryY=0.993;entryDx=0;entryDy=0;entryPerimeter=0;rounded=1;endSize=10;" parent="1" source="nSbmwZSb1zf3VBq55A1s-2" target="nSbmwZSb1zf3VBq55A1s-2" edge="1">
          <mxGeometry relative="1" as="geometry">
            <Array as="points">
              <mxPoint x="224" y="820" />
              <mxPoint x="287" y="820" />
            </Array>
          </mxGeometry>
        </mxCell>
        <mxCell id="nSbmwZSb1zf3VBq55A1s-12" style="edgeStyle=orthogonalEdgeStyle;rounded=1;orthogonalLoop=1;jettySize=auto;html=1;exitX=0.065;exitY=0.012;exitDx=0;exitDy=0;entryX=0.164;entryY=-0.021;entryDx=0;entryDy=0;entryPerimeter=0;exitPerimeter=0;endSize=10;" parent="1" edge="1">
          <mxGeometry relative="1" as="geometry">
            <mxPoint x="584.06" y="648" as="targetPoint" />
            <mxPoint x="524.06" y="651" as="sourcePoint" />
            <Array as="points">
              <mxPoint x="524.06" y="650" />
              <mxPoint x="524.06" y="600" />
              <mxPoint x="585.06" y="600" />
              <mxPoint x="585.06" y="640" />
              <mxPoint x="584.06" y="640" />
            </Array>
          </mxGeometry>
        </mxCell>
        <mxCell id="nSbmwZSb1zf3VBq55A1s-13" value="6" style="ellipse;whiteSpace=wrap;html=1;fontStyle=1;fontSize=25;fillColor=#f8c321;strokeColor=#e8b130;rounded=0;gradientColor=#fea601;" parent="1" vertex="1">
          <mxGeometry x="537.06" y="601" width="43" height="43" as="geometry" />
        </mxCell>
        <mxCell id="nSbmwZSb1zf3VBq55A1s-14" value="Act accordingly" style="text;html=1;strokeColor=none;fillColor=default;align=center;verticalAlign=middle;whiteSpace=wrap;rounded=0;fontSize=16;fontStyle=0" parent="1" vertex="1">
          <mxGeometry x="495.8399999999999" y="568" width="125.44" height="30" as="geometry" />
        </mxCell>
        <mxCell id="nSbmwZSb1zf3VBq55A1s-15" style="edgeStyle=orthogonalEdgeStyle;rounded=1;orthogonalLoop=1;jettySize=auto;html=1;exitX=0.065;exitY=0.012;exitDx=0;exitDy=0;entryX=1;entryY=0.25;entryDx=0;entryDy=0;exitPerimeter=0;dashed=1;endSize=10;" parent="1" target="nSbmwZSb1zf3VBq55A1s-2" edge="1">
          <mxGeometry relative="1" as="geometry">
            <mxPoint x="874.78" y="648" as="targetPoint" />
            <mxPoint x="814.78" y="651" as="sourcePoint" />
            <Array as="points">
              <mxPoint x="815" y="600" />
              <mxPoint x="876" y="600" />
              <mxPoint x="876" y="678" />
            </Array>
          </mxGeometry>
        </mxCell>
        <mxCell id="nSbmwZSb1zf3VBq55A1s-16" value="10" style="ellipse;whiteSpace=wrap;html=1;fontStyle=1;fontSize=25;fillColor=#f8c321;strokeColor=#e8b130;rounded=0;gradientColor=#fea601;" parent="1" vertex="1">
          <mxGeometry x="764" y="600" width="43" height="43" as="geometry" />
        </mxCell>
        <mxCell id="nSbmwZSb1zf3VBq55A1s-17" value="Update &lt;i&gt;Request &lt;/i&gt;completed" style="text;html=1;strokeColor=none;fillColor=default;align=center;verticalAlign=middle;whiteSpace=wrap;rounded=0;fontSize=16;fontStyle=0" parent="1" vertex="1">
          <mxGeometry x="844" y="620" width="70" height="29" as="geometry" />
        </mxCell>
        <mxCell id="nSbmwZSb1zf3VBq55A1s-19" value="Act accordingly" style="text;html=1;strokeColor=none;fillColor=default;align=center;verticalAlign=middle;whiteSpace=wrap;rounded=0;fontSize=16;fontStyle=0" parent="1" vertex="1">
          <mxGeometry x="471.01" y="1021" width="115.97" height="30" as="geometry" />
        </mxCell>
        <mxCell id="nSbmwZSb1zf3VBq55A1s-20" style="edgeStyle=orthogonalEdgeStyle;orthogonalLoop=1;jettySize=auto;html=1;exitX=0;exitY=1;exitDx=0;exitDy=0;entryX=0.103;entryY=0.993;entryDx=0;entryDy=0;entryPerimeter=0;rounded=1;endSize=10;" parent="1" edge="1">
          <mxGeometry relative="1" as="geometry">
            <mxPoint x="506.53" y="961" as="sourcePoint" />
            <mxPoint x="569.53" y="960" as="targetPoint" />
            <Array as="points">
              <mxPoint x="506.53" y="1021" />
              <mxPoint x="569.53" y="1021" />
            </Array>
          </mxGeometry>
        </mxCell>
        <mxCell id="nSbmwZSb1zf3VBq55A1s-21" value="5a" style="ellipse;whiteSpace=wrap;html=1;fontStyle=1;fontSize=25;fillColor=#f8c321;strokeColor=#e8b130;rounded=0;gradientColor=#fea601;" parent="1" vertex="1">
          <mxGeometry x="516.5" y="970" width="43" height="43" as="geometry" />
        </mxCell>
        <mxCell id="nSbmwZSb1zf3VBq55A1s-22" value="4a" style="ellipse;whiteSpace=wrap;html=1;fontStyle=1;fontSize=25;fillColor=#f8c321;strokeColor=#e8b130;rounded=0;gradientColor=#fea601;" parent="1" vertex="1">
          <mxGeometry x="446.5" y="880" width="43" height="43" as="geometry" />
        </mxCell>
        <mxCell id="nSbmwZSb1zf3VBq55A1s-23" value="8a" style="ellipse;whiteSpace=wrap;html=1;fontStyle=1;fontSize=25;fillColor=#f8c321;strokeColor=#e8b130;rounded=0;gradientColor=#fea601;" parent="1" vertex="1">
          <mxGeometry x="733" y="890" width="43" height="43" as="geometry" />
        </mxCell>
        <mxCell id="nSbmwZSb1zf3VBq55A1s-24" value="3" style="ellipse;whiteSpace=wrap;html=1;fontStyle=1;fontSize=25;fillColor=#f8c321;strokeColor=#e8b130;rounded=0;gradientColor=#fea601;" parent="1" vertex="1">
          <mxGeometry x="351" y="710" width="43" height="43" as="geometry" />
        </mxCell>
        <mxCell id="nSbmwZSb1zf3VBq55A1s-26" value="9" style="ellipse;whiteSpace=wrap;html=1;fontStyle=1;fontSize=25;fillColor=#f8c321;strokeColor=#e8b130;rounded=0;gradientColor=#fea601;" parent="1" vertex="1">
          <mxGeometry x="783" y="710" width="43" height="43" as="geometry" />
        </mxCell>
        <mxCell id="nSbmwZSb1zf3VBq55A1s-27" value="7" style="ellipse;whiteSpace=wrap;html=1;fontStyle=1;fontSize=25;fillColor=#f8c321;strokeColor=#e8b130;rounded=0;gradientColor=#fea601;" parent="1" vertex="1">
          <mxGeometry x="664.5" y="776" width="43" height="43" as="geometry" />
        </mxCell>
        <mxCell id="nSbmwZSb1zf3VBq55A1s-28" style="edgeStyle=orthogonalEdgeStyle;rounded=1;orthogonalLoop=1;jettySize=auto;html=1;exitX=0.065;exitY=0.012;exitDx=0;exitDy=0;entryX=0.164;entryY=-0.021;entryDx=0;entryDy=0;entryPerimeter=0;exitPerimeter=0;endSize=10;" parent="1" edge="1">
          <mxGeometry relative="1" as="geometry">
            <mxPoint x="711.06" y="877" as="targetPoint" />
            <mxPoint x="651.06" y="880" as="sourcePoint" />
            <Array as="points">
              <mxPoint x="651.06" y="879" />
              <mxPoint x="651.06" y="829" />
              <mxPoint x="712.06" y="829" />
              <mxPoint x="712.06" y="869" />
              <mxPoint x="711.06" y="869" />
            </Array>
          </mxGeometry>
        </mxCell>
        <mxCell id="nSbmwZSb1zf3VBq55A1s-30" value="Create &lt;i&gt;Events&lt;/i&gt;" style="text;html=1;strokeColor=none;fillColor=default;align=center;verticalAlign=middle;whiteSpace=wrap;rounded=0;fontSize=16;fontStyle=0" parent="1" vertex="1">
          <mxGeometry x="656" y="832" width="55" height="30" as="geometry" />
        </mxCell>
        <mxCell id="nSbmwZSb1zf3VBq55A1s-31" style="edgeStyle=orthogonalEdgeStyle;rounded=0;orthogonalLoop=1;jettySize=auto;html=1;exitX=0.25;exitY=1;exitDx=0;exitDy=0;entryX=0.065;entryY=-0.04;entryDx=0;entryDy=0;entryPerimeter=0;endSize=10;" parent="1" source="nSbmwZSb1zf3VBq55A1s-2" target="nSbmwZSb1zf3VBq55A1s-3" edge="1">
          <mxGeometry relative="1" as="geometry" />
        </mxCell>
        <mxCell id="nSbmwZSb1zf3VBq55A1s-32" value="Notify" style="text;html=1;strokeColor=none;fillColor=default;align=center;verticalAlign=middle;whiteSpace=wrap;rounded=0;fontSize=16;fontStyle=0" parent="1" vertex="1">
          <mxGeometry x="346" y="802" width="48" height="30" as="geometry" />
        </mxCell>
        <mxCell id="nSbmwZSb1zf3VBq55A1s-34" style="edgeStyle=orthogonalEdgeStyle;rounded=0;orthogonalLoop=1;jettySize=auto;html=1;exitX=0.163;exitY=-0.028;exitDx=0;exitDy=0;entryX=0.329;entryY=1.018;entryDx=0;entryDy=0;entryPerimeter=0;endSize=10;exitPerimeter=0;" parent="1" edge="1">
          <mxGeometry relative="1" as="geometry">
            <mxPoint x="410.8699999999999" y="878.7600000000002" as="sourcePoint" />
            <mxPoint x="411.69000000000005" y="762.98" as="targetPoint" />
          </mxGeometry>
        </mxCell>
        <mxCell id="nSbmwZSb1zf3VBq55A1s-35" style="edgeStyle=orthogonalEdgeStyle;rounded=0;orthogonalLoop=1;jettySize=auto;html=1;exitX=0.163;exitY=-0.028;exitDx=0;exitDy=0;entryX=0.329;entryY=1.018;entryDx=0;entryDy=0;entryPerimeter=0;endSize=10;exitPerimeter=0;" parent="1" edge="1">
          <mxGeometry relative="1" as="geometry">
            <mxPoint x="472" y="876" as="sourcePoint" />
            <mxPoint x="473" y="760" as="targetPoint" />
          </mxGeometry>
        </mxCell>
        <mxCell id="nSbmwZSb1zf3VBq55A1s-37" style="edgeStyle=orthogonalEdgeStyle;rounded=0;orthogonalLoop=1;jettySize=auto;html=1;exitX=0.163;exitY=-0.028;exitDx=0;exitDy=0;entryX=0.329;entryY=1.018;entryDx=0;entryDy=0;entryPerimeter=0;endSize=10;exitPerimeter=0;" parent="1" edge="1">
          <mxGeometry relative="1" as="geometry">
            <mxPoint x="753.76" y="876" as="sourcePoint" />
            <mxPoint x="754.76" y="760" as="targetPoint" />
          </mxGeometry>
        </mxCell>
        <mxCell id="nSbmwZSb1zf3VBq55A1s-38" style="edgeStyle=orthogonalEdgeStyle;rounded=0;orthogonalLoop=1;jettySize=auto;html=1;exitX=0.25;exitY=1;exitDx=0;exitDy=0;entryX=0.065;entryY=-0.04;entryDx=0;entryDy=0;entryPerimeter=0;endSize=10;" parent="1" edge="1">
          <mxGeometry relative="1" as="geometry">
            <mxPoint x="803.9100000000001" y="763" as="sourcePoint" />
            <mxPoint x="803.9100000000001" y="880" as="targetPoint" />
          </mxGeometry>
        </mxCell>
        <mxCell id="nSbmwZSb1zf3VBq55A1s-39" value="GET &lt;i&gt;Task&lt;/i&gt;" style="text;html=1;strokeColor=none;fillColor=default;align=center;verticalAlign=middle;whiteSpace=wrap;rounded=0;fontSize=16;fontStyle=0" parent="1" vertex="1">
          <mxGeometry x="401" y="802" width="33" height="30" as="geometry" />
        </mxCell>
        <mxCell id="nSbmwZSb1zf3VBq55A1s-40" value="PUT&lt;br&gt;&lt;i&gt;Task&lt;br&gt;Accepted&lt;br&gt;&lt;/i&gt;" style="text;html=1;strokeColor=none;fillColor=default;align=center;verticalAlign=middle;whiteSpace=wrap;rounded=0;fontSize=16;fontStyle=0" parent="1" vertex="1">
          <mxGeometry x="446.5" y="794" width="55" height="52" as="geometry" />
        </mxCell>
        <mxCell id="nSbmwZSb1zf3VBq55A1s-41" value="PUT&lt;br&gt;&lt;i&gt;Task&lt;br&gt;completed&lt;br&gt;&lt;/i&gt;" style="text;html=1;strokeColor=none;fillColor=default;align=center;verticalAlign=middle;whiteSpace=wrap;rounded=0;fontSize=16;fontStyle=0" parent="1" vertex="1">
          <mxGeometry x="727" y="794" width="55" height="52" as="geometry" />
        </mxCell>
        <mxCell id="OlyKqYoz7__BD5rqp9ry-2" value="GET &lt;i&gt;Events&lt;/i&gt;" style="text;html=1;strokeColor=none;fillColor=default;align=center;verticalAlign=middle;whiteSpace=wrap;rounded=0;fontSize=16;fontStyle=0" parent="1" vertex="1">
          <mxGeometry x="793" y="802" width="33" height="30" as="geometry" />
        </mxCell>
        <mxCell id="T5v-OUaIeYPpJaLRVk_B-1" value="A: Workflow without placer confirmation" style="text;html=1;strokeColor=none;fillColor=default;align=left;verticalAlign=middle;whiteSpace=wrap;rounded=0;fontSize=25;fontStyle=1" parent="1" vertex="1">
          <mxGeometry x="220" y="460" width="530" height="30" as="geometry" />
        </mxCell>
        <mxCell id="rVNtJj95n9bYsKMnxHTT-1" value="Care Plan Service" style="rounded=0;whiteSpace=wrap;html=1;gradientColor=#B5739D;fillColor=default;strokeColor=#7e7e7e;fontSize=20;spacingLeft=8;" parent="1" vertex="1">
          <mxGeometry x="974" y="650" width="150" height="180" as="geometry" />
        </mxCell>
        <mxCell id="rVNtJj95n9bYsKMnxHTT-3" style="edgeStyle=orthogonalEdgeStyle;rounded=0;orthogonalLoop=1;jettySize=auto;html=1;exitX=1;exitY=0.364;exitDx=0;exitDy=0;entryX=0;entryY=0.369;entryDx=0;entryDy=0;entryPerimeter=0;endSize=10;exitPerimeter=0;" parent="1" edge="1">
          <mxGeometry relative="1" as="geometry">
            <mxPoint x="834" y="702.04" as="sourcePoint" />
            <mxPoint x="974" y="702.5899999999999" as="targetPoint" />
          </mxGeometry>
        </mxCell>
        <mxCell id="rVNtJj95n9bYsKMnxHTT-4" value="Add/Update Activity in&lt;br&gt;CarePlan" style="text;html=1;strokeColor=none;fillColor=default;align=center;verticalAlign=middle;whiteSpace=wrap;rounded=0;fontSize=16;fontStyle=0" parent="1" vertex="1">
          <mxGeometry x="861" y="682" width="90" height="60" as="geometry" />
        </mxCell>
        <mxCell id="rVNtJj95n9bYsKMnxHTT-5" style="edgeStyle=orthogonalEdgeStyle;rounded=1;orthogonalLoop=1;jettySize=auto;html=1;exitX=0.065;exitY=0.012;exitDx=0;exitDy=0;entryX=1;entryY=0.25;entryDx=0;entryDy=0;exitPerimeter=0;dashed=1;endSize=10;" parent="1" edge="1">
          <mxGeometry relative="1" as="geometry">
            <mxPoint x="1124" y="679" as="targetPoint" />
            <mxPoint x="1104.78" y="652" as="sourcePoint" />
            <Array as="points">
              <mxPoint x="1105" y="601" />
              <mxPoint x="1166" y="601" />
              <mxPoint x="1166" y="679" />
            </Array>
          </mxGeometry>
        </mxCell>
        <mxCell id="rVNtJj95n9bYsKMnxHTT-6" value="Update CareTeam" style="text;html=1;strokeColor=none;fillColor=default;align=center;verticalAlign=middle;whiteSpace=wrap;rounded=0;fontSize=16;fontStyle=0" parent="1" vertex="1">
          <mxGeometry x="1134" y="621" width="70" height="29" as="geometry" />
        </mxCell>
        <mxCell id="rVNtJj95n9bYsKMnxHTT-10" value="8b" style="ellipse;whiteSpace=wrap;html=1;fontStyle=1;fontSize=25;fillColor=#f8c321;strokeColor=#e8b130;rounded=0;gradientColor=#fea601;" parent="1" vertex="1">
          <mxGeometry x="924" y="772" width="43" height="43" as="geometry" />
        </mxCell>
        <mxCell id="rVNtJj95n9bYsKMnxHTT-11" value="8c" style="ellipse;whiteSpace=wrap;html=1;fontStyle=1;fontSize=25;fillColor=#f8c321;strokeColor=#e8b130;rounded=0;gradientColor=#fea601;" parent="1" vertex="1">
          <mxGeometry x="1164" y="717" width="43" height="43" as="geometry" />
        </mxCell>
        <mxCell id="rVNtJj95n9bYsKMnxHTT-12" value="5b" style="ellipse;whiteSpace=wrap;html=1;fontStyle=1;fontSize=25;fillColor=#f8c321;strokeColor=#e8b130;rounded=0;gradientColor=#fea601;" parent="1" vertex="1">
          <mxGeometry x="509.5" y="880" width="43" height="43" as="geometry" />
        </mxCell>
        <mxCell id="rVNtJj95n9bYsKMnxHTT-14" style="edgeStyle=orthogonalEdgeStyle;rounded=0;orthogonalLoop=1;jettySize=auto;html=1;entryX=0.329;entryY=1.018;entryDx=0;entryDy=0;entryPerimeter=0;endSize=10;" parent="1" edge="1">
          <mxGeometry relative="1" as="geometry">
            <mxPoint x="530" y="870" as="sourcePoint" />
            <mxPoint x="530" y="760" as="targetPoint" />
          </mxGeometry>
        </mxCell>
        <mxCell id="rVNtJj95n9bYsKMnxHTT-13" value="PUT&lt;br&gt;&lt;i&gt;Task&lt;br&gt;In-progress&lt;br&gt;&lt;/i&gt;" style="text;html=1;strokeColor=none;fillColor=default;align=center;verticalAlign=middle;whiteSpace=wrap;rounded=0;fontSize=16;fontStyle=0" parent="1" vertex="1">
          <mxGeometry x="516.5" y="794" width="87.5" height="52" as="geometry" />
        </mxCell>
        <mxCell id="rVNtJj95n9bYsKMnxHTT-15" value="5c" style="ellipse;whiteSpace=wrap;html=1;fontStyle=1;fontSize=25;fillColor=#f8c321;strokeColor=#e8b130;rounded=0;gradientColor=#fea601;" parent="1" vertex="1">
          <mxGeometry x="871" y="927" width="43" height="43" as="geometry" />
        </mxCell>
        <mxCell id="rVNtJj95n9bYsKMnxHTT-16" style="edgeStyle=orthogonalEdgeStyle;orthogonalLoop=1;jettySize=auto;html=1;exitX=1;exitY=0.5;exitDx=0;exitDy=0;entryX=0.25;entryY=1;entryDx=0;entryDy=0;rounded=1;endSize=10;" parent="1" source="nSbmwZSb1zf3VBq55A1s-3" target="rVNtJj95n9bYsKMnxHTT-1" edge="1">
          <mxGeometry relative="1" as="geometry">
            <mxPoint x="861.03" y="882" as="sourcePoint" />
            <mxPoint x="924.03" y="881" as="targetPoint" />
            <Array as="points">
              <mxPoint x="1012" y="920" />
            </Array>
          </mxGeometry>
        </mxCell>
        <mxCell id="rVNtJj95n9bYsKMnxHTT-17" value="GET&lt;br&gt;&lt;i&gt;CarePlan to autorize CareTeam&lt;br&gt;&lt;/i&gt;" style="text;html=1;strokeColor=none;fillColor=default;align=center;verticalAlign=middle;whiteSpace=wrap;rounded=0;fontSize=16;fontStyle=0" parent="1" vertex="1">
          <mxGeometry x="914" y="933" width="140" height="52" as="geometry" />
        </mxCell>
        <mxCell id="rVNtJj95n9bYsKMnxHTT-2" value="4b" style="ellipse;whiteSpace=wrap;html=1;fontStyle=1;fontSize=25;fillColor=#f8c321;strokeColor=#e8b130;rounded=0;gradientColor=#fea601;" parent="1" vertex="1">
          <mxGeometry x="908" y="742" width="43" height="43" as="geometry" />
        </mxCell>
        <mxCell id="rVNtJj95n9bYsKMnxHTT-7" value="4c" style="ellipse;whiteSpace=wrap;html=1;fontStyle=1;fontSize=25;fillColor=#f8c321;strokeColor=#e8b130;rounded=0;gradientColor=#fea601;" parent="1" vertex="1">
          <mxGeometry x="1147.5" y="682" width="43" height="43" as="geometry" />
        </mxCell>
        <mxCell id="rVNtJj95n9bYsKMnxHTT-26" value="" style="edgeStyle=orthogonalEdgeStyle;rounded=0;orthogonalLoop=1;jettySize=auto;html=1;strokeWidth=4;" parent="1" source="rVNtJj95n9bYsKMnxHTT-20" target="rVNtJj95n9bYsKMnxHTT-23" edge="1">
          <mxGeometry relative="1" as="geometry" />
        </mxCell>
        <mxCell id="rVNtJj95n9bYsKMnxHTT-29" value="Request&lt;br style=&quot;border-color: var(--border-color); font-size: 20px;&quot;&gt;(Referral/order)" style="edgeLabel;html=1;align=center;verticalAlign=middle;resizable=0;points=[];fontSize=20;" parent="rVNtJj95n9bYsKMnxHTT-26" vertex="1" connectable="0">
          <mxGeometry x="0.3611" y="-4" relative="1" as="geometry">
            <mxPoint x="-25" y="31" as="offset" />
          </mxGeometry>
        </mxCell>
        <mxCell id="rVNtJj95n9bYsKMnxHTT-20" value="Organization B" style="rounded=0;whiteSpace=wrap;html=1;gradientColor=#eb6f6a;fillColor=#f8cdca;strokeColor=#cf8480;fontSize=20;" parent="1" vertex="1">
          <mxGeometry x="537.06" y="-550" width="148.16" height="70" as="geometry" />
        </mxCell>
        <mxCell id="rVNtJj95n9bYsKMnxHTT-24" value="" style="edgeStyle=orthogonalEdgeStyle;rounded=0;orthogonalLoop=1;jettySize=auto;html=1;strokeWidth=4;" parent="1" source="rVNtJj95n9bYsKMnxHTT-22" target="rVNtJj95n9bYsKMnxHTT-20" edge="1">
          <mxGeometry relative="1" as="geometry" />
        </mxCell>
        <mxCell id="rVNtJj95n9bYsKMnxHTT-28" value="Request&lt;br style=&quot;font-size: 20px;&quot;&gt;(Referral/order)" style="edgeLabel;html=1;align=center;verticalAlign=middle;resizable=0;points=[];fontSize=20;" parent="rVNtJj95n9bYsKMnxHTT-24" vertex="1" connectable="0">
          <mxGeometry x="-0.2164" y="-2" relative="1" as="geometry">
            <mxPoint x="12" y="33" as="offset" />
          </mxGeometry>
        </mxCell>
        <mxCell id="rVNtJj95n9bYsKMnxHTT-22" value="Organization A" style="rounded=0;whiteSpace=wrap;html=1;gradientColor=#B5739D;fillColor=default;strokeColor=#7e7e7e;fontSize=20;spacingLeft=8;" parent="1" vertex="1">
          <mxGeometry x="220" y="-550" width="148.16" height="70" as="geometry" />
        </mxCell>
        <mxCell id="rVNtJj95n9bYsKMnxHTT-23" value="Organization C" style="rounded=0;whiteSpace=wrap;html=1;gradientColor=#b4b4b4;fillColor=default;strokeColor=#7e7e7e;fontSize=20;spacingLeft=0;" parent="1" vertex="1">
          <mxGeometry x="854.78" y="-550" width="149.44" height="70" as="geometry" />
        </mxCell>
        <mxCell id="rVNtJj95n9bYsKMnxHTT-45" value="" style="edgeStyle=orthogonalEdgeStyle;rounded=0;orthogonalLoop=1;jettySize=auto;html=1;strokeWidth=4;strokeColor=#B3B3B3;" parent="1" source="rVNtJj95n9bYsKMnxHTT-49" target="rVNtJj95n9bYsKMnxHTT-61" edge="1">
          <mxGeometry relative="1" as="geometry" />
        </mxCell>
        <mxCell id="rVNtJj95n9bYsKMnxHTT-46" value="2a. Request&lt;br style=&quot;border-color: var(--border-color); font-size: 20px;&quot;&gt;(Referral/order)" style="edgeLabel;html=1;align=center;verticalAlign=middle;resizable=0;points=[];fontSize=20;fontColor=#999999;" parent="rVNtJj95n9bYsKMnxHTT-45" vertex="1" connectable="0">
          <mxGeometry x="0.3611" y="-4" relative="1" as="geometry">
            <mxPoint x="-25" y="31" as="offset" />
          </mxGeometry>
        </mxCell>
        <mxCell id="rVNtJj95n9bYsKMnxHTT-47" value="" style="edgeStyle=orthogonalEdgeStyle;rounded=0;orthogonalLoop=1;jettySize=auto;html=1;strokeWidth=4;exitX=0.204;exitY=1;exitDx=0;exitDy=0;exitPerimeter=0;entryX=0.5;entryY=0;entryDx=0;entryDy=0;" parent="1" source="rVNtJj95n9bYsKMnxHTT-49" target="rVNtJj95n9bYsKMnxHTT-62" edge="1">
          <mxGeometry relative="1" as="geometry">
            <Array as="points">
              <mxPoint x="566" y="-240" />
            </Array>
          </mxGeometry>
        </mxCell>
        <mxCell id="rVNtJj95n9bYsKMnxHTT-48" value="&lt;font style=&quot;font-size: 20px;&quot;&gt;2b. update CarePlan&lt;br style=&quot;border-color: var(--border-color);&quot;&gt;&lt;/font&gt;&lt;span style=&quot;font-size: 20px;&quot;&gt;+ add activity at C&lt;/span&gt;" style="edgeLabel;html=1;align=center;verticalAlign=middle;resizable=0;points=[];" parent="rVNtJj95n9bYsKMnxHTT-47" vertex="1" connectable="0">
          <mxGeometry x="0.0258" y="-2" relative="1" as="geometry">
            <mxPoint x="100" y="19" as="offset" />
          </mxGeometry>
        </mxCell>
        <mxCell id="rVNtJj95n9bYsKMnxHTT-49" value="Organization B" style="rounded=0;whiteSpace=wrap;html=1;gradientColor=#eb6f6a;fillColor=#f8cdca;strokeColor=#cf8480;fontSize=20;" parent="1" vertex="1">
          <mxGeometry x="537.06" y="-310" width="148.16" height="70" as="geometry" />
        </mxCell>
        <mxCell id="rVNtJj95n9bYsKMnxHTT-50" value="" style="edgeStyle=orthogonalEdgeStyle;rounded=0;orthogonalLoop=1;jettySize=auto;html=1;strokeWidth=4;strokeColor=#B3B3B3;" parent="1" source="rVNtJj95n9bYsKMnxHTT-56" target="rVNtJj95n9bYsKMnxHTT-49" edge="1">
          <mxGeometry relative="1" as="geometry" />
        </mxCell>
        <mxCell id="rVNtJj95n9bYsKMnxHTT-51" value="1a. Request&lt;br style=&quot;font-size: 20px;&quot;&gt;(Referral/order)" style="edgeLabel;html=1;align=center;verticalAlign=middle;resizable=0;points=[];fontSize=20;fontColor=#999999;" parent="rVNtJj95n9bYsKMnxHTT-50" vertex="1" connectable="0">
          <mxGeometry x="-0.2164" y="-2" relative="1" as="geometry">
            <mxPoint x="12" y="33" as="offset" />
          </mxGeometry>
        </mxCell>
        <mxCell id="rVNtJj95n9bYsKMnxHTT-52" style="edgeStyle=orthogonalEdgeStyle;rounded=0;orthogonalLoop=1;jettySize=auto;html=1;entryX=0;entryY=0.5;entryDx=0;entryDy=0;strokeWidth=4;" parent="1" source="rVNtJj95n9bYsKMnxHTT-56" target="rVNtJj95n9bYsKMnxHTT-62" edge="1">
          <mxGeometry relative="1" as="geometry">
            <Array as="points">
              <mxPoint x="304" y="-105" />
            </Array>
          </mxGeometry>
        </mxCell>
        <mxCell id="rVNtJj95n9bYsKMnxHTT-53" value="&lt;font style=&quot;font-size: 20px;&quot;&gt;1b. Create CarePlan&lt;/font&gt;&lt;br style=&quot;border-color: var(--border-color); font-size: 20px;&quot;&gt;&lt;span style=&quot;font-size: 20px;&quot;&gt;+ add activity at B&lt;/span&gt;" style="edgeLabel;html=1;align=center;verticalAlign=middle;resizable=0;points=[];" parent="rVNtJj95n9bYsKMnxHTT-52" vertex="1" connectable="0">
          <mxGeometry x="0.3266" relative="1" as="geometry">
            <mxPoint x="24" y="-65" as="offset" />
          </mxGeometry>
        </mxCell>
        <mxCell id="rVNtJj95n9bYsKMnxHTT-56" value="Organization A" style="rounded=0;whiteSpace=wrap;html=1;gradientColor=#B5739D;fillColor=default;strokeColor=#7e7e7e;fontSize=20;spacingLeft=8;" parent="1" vertex="1">
          <mxGeometry x="220" y="-310" width="148.16" height="70" as="geometry" />
        </mxCell>
        <mxCell id="rVNtJj95n9bYsKMnxHTT-61" value="Organization C" style="rounded=0;whiteSpace=wrap;html=1;gradientColor=#b4b4b4;fillColor=default;strokeColor=#7e7e7e;fontSize=20;spacingLeft=0;" parent="1" vertex="1">
          <mxGeometry x="854.78" y="-310" width="149.44" height="70" as="geometry" />
        </mxCell>
        <mxCell id="rVNtJj95n9bYsKMnxHTT-62" value="Care Plan Service" style="rounded=0;whiteSpace=wrap;html=1;gradientColor=#B5739D;fillColor=default;strokeColor=#7e7e7e;fontSize=20;spacingLeft=8;" parent="1" vertex="1">
          <mxGeometry x="492" y="-140" width="148.16" height="70" as="geometry" />
        </mxCell>
        <mxCell id="rVNtJj95n9bYsKMnxHTT-67" value="Organization B" style="rounded=0;whiteSpace=wrap;html=1;gradientColor=#eb6f6a;fillColor=#f8cdca;strokeColor=#cf8480;fontSize=20;" parent="1" vertex="1">
          <mxGeometry x="537.06" y="59.93000000000001" width="148.16" height="70" as="geometry" />
        </mxCell>
        <mxCell id="rVNtJj95n9bYsKMnxHTT-72" style="edgeStyle=orthogonalEdgeStyle;rounded=0;orthogonalLoop=1;jettySize=auto;html=1;exitX=0.25;exitY=1;exitDx=0;exitDy=0;entryX=0;entryY=0.75;entryDx=0;entryDy=0;strokeWidth=4;" parent="1" source="rVNtJj95n9bYsKMnxHTT-74" target="rVNtJj95n9bYsKMnxHTT-80" edge="1">
          <mxGeometry relative="1" as="geometry" />
        </mxCell>
        <mxCell id="rVNtJj95n9bYsKMnxHTT-73" value="3c. Check membership" style="edgeLabel;html=1;align=center;verticalAlign=middle;resizable=0;points=[];fontSize=20;" parent="rVNtJj95n9bYsKMnxHTT-72" vertex="1" connectable="0">
          <mxGeometry x="0.2758" relative="1" as="geometry">
            <mxPoint x="2" y="28" as="offset" />
          </mxGeometry>
        </mxCell>
        <mxCell id="rVNtJj95n9bYsKMnxHTT-84" style="edgeStyle=orthogonalEdgeStyle;rounded=0;orthogonalLoop=1;jettySize=auto;html=1;entryX=0.25;entryY=0;entryDx=0;entryDy=0;exitX=0.75;exitY=0;exitDx=0;exitDy=0;strokeWidth=4;" parent="1" source="rVNtJj95n9bYsKMnxHTT-74" target="rVNtJj95n9bYsKMnxHTT-79" edge="1">
          <mxGeometry relative="1" as="geometry">
            <Array as="points">
              <mxPoint x="333.5" y="59.93000000000001" />
              <mxPoint x="333.5" y="39.93000000000001" />
              <mxPoint x="892.5" y="39.93000000000001" />
            </Array>
          </mxGeometry>
        </mxCell>
        <mxCell id="rVNtJj95n9bYsKMnxHTT-85" value="&lt;font style=&quot;font-size: 20px;&quot;&gt;3d. Provide data&lt;/font&gt;" style="edgeLabel;html=1;align=center;verticalAlign=middle;resizable=0;points=[];" parent="rVNtJj95n9bYsKMnxHTT-84" vertex="1" connectable="0">
          <mxGeometry x="-0.5464" y="-2" relative="1" as="geometry">
            <mxPoint x="7" y="18" as="offset" />
          </mxGeometry>
        </mxCell>
        <mxCell id="rVNtJj95n9bYsKMnxHTT-74" value="Organization A" style="rounded=0;whiteSpace=wrap;html=1;gradientColor=#B5739D;fillColor=default;strokeColor=#7e7e7e;fontSize=20;spacingLeft=8;" parent="1" vertex="1">
          <mxGeometry x="220" y="59.93000000000001" width="148.16" height="70" as="geometry" />
        </mxCell>
        <mxCell id="rVNtJj95n9bYsKMnxHTT-75" style="edgeStyle=orthogonalEdgeStyle;rounded=0;orthogonalLoop=1;jettySize=auto;html=1;entryX=1;entryY=0.5;entryDx=0;entryDy=0;strokeWidth=4;" parent="1" source="rVNtJj95n9bYsKMnxHTT-79" target="rVNtJj95n9bYsKMnxHTT-80" edge="1">
          <mxGeometry relative="1" as="geometry">
            <Array as="points">
              <mxPoint x="914" y="264.93" />
            </Array>
          </mxGeometry>
        </mxCell>
        <mxCell id="rVNtJj95n9bYsKMnxHTT-76" value="3a. Localize data/participants" style="edgeLabel;html=1;align=center;verticalAlign=middle;resizable=0;points=[];fontSize=20;" parent="rVNtJj95n9bYsKMnxHTT-75" vertex="1" connectable="0">
          <mxGeometry x="-0.005" y="4" relative="1" as="geometry">
            <mxPoint x="-38" y="11" as="offset" />
          </mxGeometry>
        </mxCell>
        <mxCell id="rVNtJj95n9bYsKMnxHTT-77" style="edgeStyle=orthogonalEdgeStyle;rounded=0;orthogonalLoop=1;jettySize=auto;html=1;entryX=0.5;entryY=0;entryDx=0;entryDy=0;strokeWidth=4;" parent="1" source="rVNtJj95n9bYsKMnxHTT-79" target="rVNtJj95n9bYsKMnxHTT-74" edge="1">
          <mxGeometry relative="1" as="geometry">
            <Array as="points">
              <mxPoint x="929" y="19.930000000000007" />
              <mxPoint x="294" y="19.930000000000007" />
            </Array>
          </mxGeometry>
        </mxCell>
        <mxCell id="rVNtJj95n9bYsKMnxHTT-78" value="3b. Get data" style="edgeLabel;html=1;align=center;verticalAlign=middle;resizable=0;points=[];fontSize=20;" parent="rVNtJj95n9bYsKMnxHTT-77" vertex="1" connectable="0">
          <mxGeometry x="0.5135" y="-1" relative="1" as="geometry">
            <mxPoint x="6" y="-29" as="offset" />
          </mxGeometry>
        </mxCell>
        <mxCell id="rVNtJj95n9bYsKMnxHTT-79" value="Organization C" style="rounded=0;whiteSpace=wrap;html=1;gradientColor=#b4b4b4;fillColor=default;strokeColor=#7e7e7e;fontSize=20;spacingLeft=0;" parent="1" vertex="1">
          <mxGeometry x="854.78" y="59.93000000000001" width="149.44" height="70" as="geometry" />
        </mxCell>
        <mxCell id="rVNtJj95n9bYsKMnxHTT-80" value="Care Plan Service" style="rounded=0;whiteSpace=wrap;html=1;gradientColor=#B5739D;fillColor=default;strokeColor=#7e7e7e;fontSize=20;spacingLeft=8;" parent="1" vertex="1">
          <mxGeometry x="492" y="229.93" width="148.16" height="70" as="geometry" />
        </mxCell>
        <mxCell id="rVNtJj95n9bYsKMnxHTT-41" style="edgeStyle=orthogonalEdgeStyle;rounded=0;orthogonalLoop=1;jettySize=auto;html=1;strokeWidth=4;entryX=0.75;entryY=0;entryDx=0;entryDy=0;jumpStyle=gap;" parent="1" source="rVNtJj95n9bYsKMnxHTT-23" target="rVNtJj95n9bYsKMnxHTT-22" edge="1">
          <mxGeometry relative="1" as="geometry">
            <mxPoint x="342.99" y="-630" as="targetPoint" />
            <Array as="points">
              <mxPoint x="928.99" y="-610" />
              <mxPoint x="442.99" y="-610" />
              <mxPoint x="442.99" y="-560" />
              <mxPoint x="502.99" y="-560" />
              <mxPoint x="502.99" y="-630" />
              <mxPoint x="330.99" y="-630" />
            </Array>
          </mxGeometry>
        </mxCell>
        <mxCell id="et9Vqiaa_TVIG2c-tyO_-2" value="&lt;p style=&quot;line-height: 100%;&quot;&gt;&lt;font color=&quot;#ff3333&quot; style=&quot;font-size: 50px;&quot;&gt;?&lt;/font&gt;&lt;/p&gt;" style="edgeLabel;html=1;align=center;verticalAlign=middle;resizable=0;points=[];spacing=0;labelBackgroundColor=none;" parent="rVNtJj95n9bYsKMnxHTT-41" vertex="1" connectable="0">
          <mxGeometry x="-0.1058" y="-2" relative="1" as="geometry">
            <mxPoint x="-79" y="32" as="offset" />
          </mxGeometry>
        </mxCell>
        <mxCell id="rVNtJj95n9bYsKMnxHTT-44" value="Get data" style="edgeLabel;html=1;align=center;verticalAlign=middle;resizable=0;points=[];fontSize=20;" parent="rVNtJj95n9bYsKMnxHTT-41" vertex="1" connectable="0">
          <mxGeometry x="0.5135" y="-1" relative="1" as="geometry">
            <mxPoint x="104" y="41" as="offset" />
          </mxGeometry>
        </mxCell>
        <mxCell id="rVNtJj95n9bYsKMnxHTT-81" value="&lt;font color=&quot;#ff3333&quot; style=&quot;font-size: 50px;&quot;&gt;X&lt;/font&gt;" style="edgeLabel;html=1;align=center;verticalAlign=middle;resizable=0;points=[];" parent="rVNtJj95n9bYsKMnxHTT-41" vertex="1" connectable="0">
          <mxGeometry x="-0.1058" y="-2" relative="1" as="geometry">
            <mxPoint x="-259" y="22" as="offset" />
          </mxGeometry>
        </mxCell>
      </root>
    </mxGraphModel>
  </diagram>
  <diagram id="5kAamqxjqccoeeyItIAx" name="Page-2">
    <mxGraphModel dx="1056" dy="722" grid="1" gridSize="10" guides="1" tooltips="1" connect="1" arrows="1" fold="1" page="1" pageScale="1" pageWidth="1654" pageHeight="1169" math="0" shadow="0">
      <root>
        <mxCell id="0" />
        <mxCell id="1" parent="0" />
        <mxCell id="VDFa62QdeicqgUjPfyEO-3" style="edgeStyle=orthogonalEdgeStyle;rounded=1;orthogonalLoop=1;jettySize=auto;html=1;exitX=0.065;exitY=0.012;exitDx=0;exitDy=0;entryX=0.164;entryY=-0.021;entryDx=0;entryDy=0;entryPerimeter=0;exitPerimeter=0;endSize=10;" parent="1" source="VDFa62QdeicqgUjPfyEO-4" target="VDFa62QdeicqgUjPfyEO-4" edge="1">
          <mxGeometry relative="1" as="geometry">
            <mxPoint x="290.03" y="1090" as="targetPoint" />
            <Array as="points">
              <mxPoint x="230.03" y="1100" />
              <mxPoint x="230.03" y="1050" />
              <mxPoint x="291.03" y="1050" />
              <mxPoint x="291.03" y="1090" />
              <mxPoint x="290.03" y="1090" />
            </Array>
          </mxGeometry>
        </mxCell>
        <mxCell id="VDFa62QdeicqgUjPfyEO-4" value="Placer + FHIR Server" style="rounded=0;whiteSpace=wrap;html=1;gradientColor=#eb6f6a;fillColor=#f8cdca;strokeColor=#cf8480;fontSize=20;" parent="1" vertex="1">
          <mxGeometry x="190.03" y="1100" width="610" height="110" as="geometry" />
        </mxCell>
        <mxCell id="VDFa62QdeicqgUjPfyEO-5" value="Filler + FHIR Server" style="rounded=0;whiteSpace=wrap;html=1;gradientColor=#b4b4b4;fillColor=default;strokeColor=#7e7e7e;fontSize=20;spacingLeft=21;" parent="1" vertex="1">
          <mxGeometry x="310.03" y="1330" width="490" height="80" as="geometry" />
        </mxCell>
        <mxCell id="VDFa62QdeicqgUjPfyEO-6" value="1" style="ellipse;whiteSpace=wrap;html=1;fontStyle=1;fontSize=25;fillColor=#f8cdca;strokeColor=#cf8480;rounded=0;gradientColor=#eb6f6a;" parent="1" vertex="1">
          <mxGeometry x="200.03" y="1218" width="43" height="43" as="geometry" />
        </mxCell>
        <mxCell id="VDFa62QdeicqgUjPfyEO-7" value="2" style="ellipse;whiteSpace=wrap;html=1;fontStyle=1;fontSize=25;fillColor=#f8c321;strokeColor=#e8b130;rounded=0;gradientColor=#fea601;" parent="1" vertex="1">
          <mxGeometry x="243.03" y="1051" width="43" height="43" as="geometry" />
        </mxCell>
        <mxCell id="VDFa62QdeicqgUjPfyEO-8" value="Create &lt;i&gt;Request&lt;/i&gt;" style="text;html=1;strokeColor=none;fillColor=default;align=center;verticalAlign=middle;whiteSpace=wrap;rounded=0;fontSize=16;fontStyle=0" parent="1" vertex="1">
          <mxGeometry x="191.53" y="1270" width="60" height="30" as="geometry" />
        </mxCell>
        <mxCell id="VDFa62QdeicqgUjPfyEO-9" value="Create &lt;i&gt;Task&lt;/i&gt;" style="text;html=1;strokeColor=none;fillColor=default;align=center;verticalAlign=middle;whiteSpace=wrap;rounded=0;fontSize=16;fontStyle=0" parent="1" vertex="1">
          <mxGeometry x="234.53" y="1010" width="60" height="30" as="geometry" />
        </mxCell>
        <mxCell id="VDFa62QdeicqgUjPfyEO-10" style="edgeStyle=orthogonalEdgeStyle;orthogonalLoop=1;jettySize=auto;html=1;exitX=0;exitY=1;exitDx=0;exitDy=0;entryX=0.103;entryY=0.993;entryDx=0;entryDy=0;entryPerimeter=0;rounded=1;endSize=10;" parent="1" source="VDFa62QdeicqgUjPfyEO-4" target="VDFa62QdeicqgUjPfyEO-4" edge="1">
          <mxGeometry relative="1" as="geometry">
            <Array as="points">
              <mxPoint x="190.03" y="1270" />
              <mxPoint x="253.03" y="1270" />
            </Array>
          </mxGeometry>
        </mxCell>
        <mxCell id="VDFa62QdeicqgUjPfyEO-11" style="edgeStyle=orthogonalEdgeStyle;rounded=1;orthogonalLoop=1;jettySize=auto;html=1;exitX=0.065;exitY=0.012;exitDx=0;exitDy=0;entryX=0.164;entryY=-0.021;entryDx=0;entryDy=0;entryPerimeter=0;exitPerimeter=0;endSize=10;" parent="1" edge="1">
          <mxGeometry relative="1" as="geometry">
            <mxPoint x="550.0899999999999" y="1098" as="targetPoint" />
            <mxPoint x="490.0899999999999" y="1101" as="sourcePoint" />
            <Array as="points">
              <mxPoint x="490.0899999999999" y="1100" />
              <mxPoint x="490.0899999999999" y="1050" />
              <mxPoint x="551.0899999999999" y="1050" />
              <mxPoint x="551.0899999999999" y="1090" />
              <mxPoint x="550.0899999999999" y="1090" />
            </Array>
          </mxGeometry>
        </mxCell>
        <mxCell id="VDFa62QdeicqgUjPfyEO-12" value="6" style="ellipse;whiteSpace=wrap;html=1;fontStyle=1;fontSize=25;fillColor=#f8c321;strokeColor=#e8b130;rounded=0;gradientColor=#fea601;" parent="1" vertex="1">
          <mxGeometry x="503.0899999999999" y="1051" width="43" height="43" as="geometry" />
        </mxCell>
        <mxCell id="VDFa62QdeicqgUjPfyEO-13" value="Act accordingly" style="text;html=1;strokeColor=none;fillColor=default;align=center;verticalAlign=middle;whiteSpace=wrap;rounded=0;fontSize=16;fontStyle=0" parent="1" vertex="1">
          <mxGeometry x="461.8699999999999" y="1018" width="125.44" height="30" as="geometry" />
        </mxCell>
        <mxCell id="VDFa62QdeicqgUjPfyEO-14" style="edgeStyle=orthogonalEdgeStyle;rounded=1;orthogonalLoop=1;jettySize=auto;html=1;exitX=0.065;exitY=0.012;exitDx=0;exitDy=0;entryX=1;entryY=0.25;entryDx=0;entryDy=0;exitPerimeter=0;dashed=1;endSize=10;" parent="1" target="VDFa62QdeicqgUjPfyEO-4" edge="1">
          <mxGeometry relative="1" as="geometry">
            <mxPoint x="840.81" y="1098" as="targetPoint" />
            <mxPoint x="780.81" y="1101" as="sourcePoint" />
            <Array as="points">
              <mxPoint x="781.03" y="1050" />
              <mxPoint x="842.03" y="1050" />
              <mxPoint x="842.03" y="1128" />
            </Array>
          </mxGeometry>
        </mxCell>
        <mxCell id="VDFa62QdeicqgUjPfyEO-15" value="10" style="ellipse;whiteSpace=wrap;html=1;fontStyle=1;fontSize=25;fillColor=#f8c321;strokeColor=#e8b130;rounded=0;gradientColor=#fea601;" parent="1" vertex="1">
          <mxGeometry x="730.03" y="1050" width="43" height="43" as="geometry" />
        </mxCell>
        <mxCell id="VDFa62QdeicqgUjPfyEO-16" value="Update &lt;i&gt;Request &lt;/i&gt;completed" style="text;html=1;strokeColor=none;fillColor=default;align=center;verticalAlign=middle;whiteSpace=wrap;rounded=0;fontSize=16;fontStyle=0" parent="1" vertex="1">
          <mxGeometry x="810.03" y="1070" width="70" height="29" as="geometry" />
        </mxCell>
        <mxCell id="VDFa62QdeicqgUjPfyEO-17" value="Act accordingly" style="text;html=1;strokeColor=none;fillColor=default;align=center;verticalAlign=middle;whiteSpace=wrap;rounded=0;fontSize=16;fontStyle=0" parent="1" vertex="1">
          <mxGeometry x="437.03999999999996" y="1471" width="115.97" height="30" as="geometry" />
        </mxCell>
        <mxCell id="VDFa62QdeicqgUjPfyEO-18" style="edgeStyle=orthogonalEdgeStyle;orthogonalLoop=1;jettySize=auto;html=1;exitX=0;exitY=1;exitDx=0;exitDy=0;entryX=0.103;entryY=0.993;entryDx=0;entryDy=0;entryPerimeter=0;rounded=1;endSize=10;" parent="1" edge="1">
          <mxGeometry relative="1" as="geometry">
            <mxPoint x="472.55999999999995" y="1411" as="sourcePoint" />
            <mxPoint x="535.56" y="1410" as="targetPoint" />
            <Array as="points">
              <mxPoint x="472.55999999999995" y="1471" />
              <mxPoint x="535.56" y="1471" />
            </Array>
          </mxGeometry>
        </mxCell>
        <mxCell id="VDFa62QdeicqgUjPfyEO-19" value="5" style="ellipse;whiteSpace=wrap;html=1;fontStyle=1;fontSize=25;fillColor=#f8c321;strokeColor=#e8b130;rounded=0;gradientColor=#fea601;" parent="1" vertex="1">
          <mxGeometry x="482.53" y="1420" width="43" height="43" as="geometry" />
        </mxCell>
        <mxCell id="VDFa62QdeicqgUjPfyEO-20" value="4" style="ellipse;whiteSpace=wrap;html=1;fontStyle=1;fontSize=25;fillColor=#f8c321;strokeColor=#e8b130;rounded=0;gradientColor=#fea601;" parent="1" vertex="1">
          <mxGeometry x="412.53" y="1330" width="43" height="43" as="geometry" />
        </mxCell>
        <mxCell id="VDFa62QdeicqgUjPfyEO-21" value="8" style="ellipse;whiteSpace=wrap;html=1;fontStyle=1;fontSize=25;fillColor=#f8c321;strokeColor=#e8b130;rounded=0;gradientColor=#fea601;" parent="1" vertex="1">
          <mxGeometry x="699.03" y="1340" width="43" height="43" as="geometry" />
        </mxCell>
        <mxCell id="VDFa62QdeicqgUjPfyEO-22" value="3" style="ellipse;whiteSpace=wrap;html=1;fontStyle=1;fontSize=25;fillColor=#f8c321;strokeColor=#e8b130;rounded=0;gradientColor=#fea601;" parent="1" vertex="1">
          <mxGeometry x="317.03" y="1160" width="43" height="43" as="geometry" />
        </mxCell>
        <mxCell id="VDFa62QdeicqgUjPfyEO-23" value="9" style="ellipse;whiteSpace=wrap;html=1;fontStyle=1;fontSize=25;fillColor=#f8c321;strokeColor=#e8b130;rounded=0;gradientColor=#fea601;" parent="1" vertex="1">
          <mxGeometry x="749.03" y="1160" width="43" height="43" as="geometry" />
        </mxCell>
        <mxCell id="VDFa62QdeicqgUjPfyEO-24" value="7" style="ellipse;whiteSpace=wrap;html=1;fontStyle=1;fontSize=25;fillColor=#f8c321;strokeColor=#e8b130;rounded=0;gradientColor=#fea601;" parent="1" vertex="1">
          <mxGeometry x="630.53" y="1226" width="43" height="43" as="geometry" />
        </mxCell>
        <mxCell id="VDFa62QdeicqgUjPfyEO-25" style="edgeStyle=orthogonalEdgeStyle;rounded=1;orthogonalLoop=1;jettySize=auto;html=1;exitX=0.065;exitY=0.012;exitDx=0;exitDy=0;entryX=0.164;entryY=-0.021;entryDx=0;entryDy=0;entryPerimeter=0;exitPerimeter=0;endSize=10;" parent="1" edge="1">
          <mxGeometry relative="1" as="geometry">
            <mxPoint x="677.0899999999999" y="1327" as="targetPoint" />
            <mxPoint x="617.0899999999999" y="1330" as="sourcePoint" />
            <Array as="points">
              <mxPoint x="617.0899999999999" y="1329" />
              <mxPoint x="617.0899999999999" y="1279" />
              <mxPoint x="678.0899999999999" y="1279" />
              <mxPoint x="678.0899999999999" y="1319" />
              <mxPoint x="677.0899999999999" y="1319" />
            </Array>
          </mxGeometry>
        </mxCell>
        <mxCell id="VDFa62QdeicqgUjPfyEO-26" value="Create &lt;i&gt;Events&lt;/i&gt;" style="text;html=1;strokeColor=none;fillColor=default;align=center;verticalAlign=middle;whiteSpace=wrap;rounded=0;fontSize=16;fontStyle=0" parent="1" vertex="1">
          <mxGeometry x="622.03" y="1282" width="55" height="30" as="geometry" />
        </mxCell>
        <mxCell id="VDFa62QdeicqgUjPfyEO-27" style="edgeStyle=orthogonalEdgeStyle;rounded=0;orthogonalLoop=1;jettySize=auto;html=1;exitX=0.25;exitY=1;exitDx=0;exitDy=0;entryX=0.065;entryY=-0.04;entryDx=0;entryDy=0;entryPerimeter=0;endSize=10;" parent="1" source="VDFa62QdeicqgUjPfyEO-4" target="VDFa62QdeicqgUjPfyEO-5" edge="1">
          <mxGeometry relative="1" as="geometry" />
        </mxCell>
        <mxCell id="VDFa62QdeicqgUjPfyEO-28" value="Notify" style="text;html=1;strokeColor=none;fillColor=default;align=center;verticalAlign=middle;whiteSpace=wrap;rounded=0;fontSize=16;fontStyle=0" parent="1" vertex="1">
          <mxGeometry x="312.03" y="1252" width="37.97" height="30" as="geometry" />
        </mxCell>
        <mxCell id="VDFa62QdeicqgUjPfyEO-29" style="edgeStyle=orthogonalEdgeStyle;rounded=0;orthogonalLoop=1;jettySize=auto;html=1;exitX=0.163;exitY=-0.028;exitDx=0;exitDy=0;entryX=0.329;entryY=1.018;entryDx=0;entryDy=0;entryPerimeter=0;endSize=10;exitPerimeter=0;" parent="1" edge="1">
          <mxGeometry relative="1" as="geometry">
            <mxPoint x="376.9000000000001" y="1328.7600000000002" as="sourcePoint" />
            <mxPoint x="377.72000000000025" y="1212.98" as="targetPoint" />
          </mxGeometry>
        </mxCell>
        <mxCell id="VDFa62QdeicqgUjPfyEO-30" style="edgeStyle=orthogonalEdgeStyle;rounded=0;orthogonalLoop=1;jettySize=auto;html=1;exitX=0.163;exitY=-0.028;exitDx=0;exitDy=0;entryX=0.329;entryY=1.018;entryDx=0;entryDy=0;entryPerimeter=0;endSize=10;exitPerimeter=0;" parent="1" edge="1">
          <mxGeometry relative="1" as="geometry">
            <mxPoint x="438.03" y="1326" as="sourcePoint" />
            <mxPoint x="439.03" y="1210" as="targetPoint" />
          </mxGeometry>
        </mxCell>
        <mxCell id="VDFa62QdeicqgUjPfyEO-31" style="edgeStyle=orthogonalEdgeStyle;rounded=0;orthogonalLoop=1;jettySize=auto;html=1;exitX=0.163;exitY=-0.028;exitDx=0;exitDy=0;entryX=0.329;entryY=1.018;entryDx=0;entryDy=0;entryPerimeter=0;endSize=10;exitPerimeter=0;" parent="1" edge="1">
          <mxGeometry relative="1" as="geometry">
            <mxPoint x="719.79" y="1326" as="sourcePoint" />
            <mxPoint x="720.79" y="1210" as="targetPoint" />
          </mxGeometry>
        </mxCell>
        <mxCell id="VDFa62QdeicqgUjPfyEO-32" style="edgeStyle=orthogonalEdgeStyle;rounded=0;orthogonalLoop=1;jettySize=auto;html=1;exitX=0.25;exitY=1;exitDx=0;exitDy=0;entryX=0.065;entryY=-0.04;entryDx=0;entryDy=0;entryPerimeter=0;endSize=10;" parent="1" edge="1">
          <mxGeometry relative="1" as="geometry">
            <mxPoint x="769.94" y="1213" as="sourcePoint" />
            <mxPoint x="769.94" y="1330" as="targetPoint" />
          </mxGeometry>
        </mxCell>
        <mxCell id="VDFa62QdeicqgUjPfyEO-33" value="GET &lt;i&gt;Task&lt;/i&gt;" style="text;html=1;strokeColor=none;fillColor=default;align=center;verticalAlign=middle;whiteSpace=wrap;rounded=0;fontSize=16;fontStyle=0" parent="1" vertex="1">
          <mxGeometry x="367.03" y="1252" width="32.97" height="30" as="geometry" />
        </mxCell>
        <mxCell id="VDFa62QdeicqgUjPfyEO-34" value="PUT&lt;br&gt;Accepted&lt;br&gt;&amp;nbsp;&lt;i&gt;Task&lt;/i&gt;" style="text;html=1;strokeColor=none;fillColor=default;align=center;verticalAlign=middle;whiteSpace=wrap;rounded=0;fontSize=16;fontStyle=0" parent="1" vertex="1">
          <mxGeometry x="412.53" y="1244" width="55" height="52" as="geometry" />
        </mxCell>
        <mxCell id="VDFa62QdeicqgUjPfyEO-35" value="PUT&lt;br&gt;&lt;i&gt;Task&lt;br&gt;completed&lt;br&gt;&lt;/i&gt;" style="text;html=1;strokeColor=none;fillColor=default;align=center;verticalAlign=middle;whiteSpace=wrap;rounded=0;fontSize=16;fontStyle=0" parent="1" vertex="1">
          <mxGeometry x="693.03" y="1244" width="55" height="52" as="geometry" />
        </mxCell>
        <mxCell id="VDFa62QdeicqgUjPfyEO-36" value="Update Task status" style="text;html=1;strokeColor=none;fillColor=default;align=center;verticalAlign=middle;whiteSpace=wrap;rounded=0;fontSize=16;fontStyle=0" parent="1" vertex="1">
          <mxGeometry x="475.21" y="1282" width="63.8" height="30" as="geometry" />
        </mxCell>
        <mxCell id="VDFa62QdeicqgUjPfyEO-37" style="edgeStyle=orthogonalEdgeStyle;orthogonalLoop=1;jettySize=auto;html=1;exitX=0;exitY=1;exitDx=0;exitDy=0;entryX=0.103;entryY=0.993;entryDx=0;entryDy=0;entryPerimeter=0;rounded=1;endSize=10;" parent="1" edge="1">
          <mxGeometry relative="1" as="geometry">
            <mxPoint x="477.71999999999997" y="1210" as="sourcePoint" />
            <mxPoint x="540.7199999999999" y="1209" as="targetPoint" />
            <Array as="points">
              <mxPoint x="477.71999999999997" y="1270" />
              <mxPoint x="540.7199999999999" y="1270" />
            </Array>
          </mxGeometry>
        </mxCell>
        <mxCell id="VDFa62QdeicqgUjPfyEO-38" value="4a" style="ellipse;whiteSpace=wrap;html=1;fontStyle=1;fontSize=25;fillColor=#f8c321;strokeColor=#e8b130;rounded=0;gradientColor=#fea601;" parent="1" vertex="1">
          <mxGeometry x="487.69" y="1219" width="43" height="43" as="geometry" />
        </mxCell>
        <mxCell id="VDFa62QdeicqgUjPfyEO-39" value="3" style="ellipse;whiteSpace=wrap;html=1;fontStyle=1;fontSize=25;fillColor=#f8c321;strokeColor=#e8b130;rounded=0;gradientColor=#fea601;" parent="1" vertex="1">
          <mxGeometry x="542.13" y="1160" width="43" height="43" as="geometry" />
        </mxCell>
        <mxCell id="VDFa62QdeicqgUjPfyEO-40" style="edgeStyle=orthogonalEdgeStyle;rounded=0;orthogonalLoop=1;jettySize=auto;html=1;exitX=0.25;exitY=1;exitDx=0;exitDy=0;entryX=0.065;entryY=-0.04;entryDx=0;entryDy=0;entryPerimeter=0;endSize=10;" parent="1" edge="1">
          <mxGeometry relative="1" as="geometry">
            <mxPoint x="564.1" y="1210" as="sourcePoint" />
            <mxPoint x="563.1" y="1327" as="targetPoint" />
          </mxGeometry>
        </mxCell>
        <mxCell id="VDFa62QdeicqgUjPfyEO-41" value="Notify" style="text;html=1;strokeColor=none;fillColor=default;align=center;verticalAlign=middle;whiteSpace=wrap;rounded=0;fontSize=16;fontStyle=0" parent="1" vertex="1">
          <mxGeometry x="537.09" y="1273" width="47.91" height="30" as="geometry" />
        </mxCell>
        <mxCell id="VDFa62QdeicqgUjPfyEO-42" style="edgeStyle=orthogonalEdgeStyle;rounded=0;orthogonalLoop=1;jettySize=auto;html=1;exitX=0.163;exitY=-0.028;exitDx=0;exitDy=0;entryX=0.329;entryY=1.018;entryDx=0;entryDy=0;entryPerimeter=0;endSize=10;exitPerimeter=0;" parent="1" edge="1">
          <mxGeometry relative="1" as="geometry">
            <mxPoint x="591.0000000000001" y="1325.7800000000002" as="sourcePoint" />
            <mxPoint x="591.8200000000003" y="1210" as="targetPoint" />
          </mxGeometry>
        </mxCell>
        <mxCell id="VDFa62QdeicqgUjPfyEO-43" value="GET &lt;i&gt;Task&lt;/i&gt;" style="text;html=1;strokeColor=none;fillColor=default;align=center;verticalAlign=middle;whiteSpace=wrap;rounded=0;fontSize=16;fontStyle=0" parent="1" vertex="1">
          <mxGeometry x="581.13" y="1249.02" width="32.97" height="30" as="geometry" />
        </mxCell>
        <mxCell id="xCPZYie9k9yXYAJe3Alm-1" value="B-2: Workflow with placer confirmation, using (business-) status-change" style="text;html=1;strokeColor=none;fillColor=default;align=left;verticalAlign=middle;whiteSpace=wrap;rounded=0;fontSize=25;fontStyle=1" parent="1" vertex="1">
          <mxGeometry x="191.53" y="950" width="490.97" height="30" as="geometry" />
        </mxCell>
        <mxCell id="UHeSgp9_CEh3qre5uPWC-1" value="GET &lt;i&gt;Events&lt;/i&gt;" style="text;html=1;strokeColor=none;fillColor=default;align=center;verticalAlign=middle;whiteSpace=wrap;rounded=0;fontSize=16;fontStyle=0" parent="1" vertex="1">
          <mxGeometry x="759.03" y="1243" width="33" height="30" as="geometry" />
        </mxCell>
      </root>
    </mxGraphModel>
  </diagram>
  <diagram id="-YAW_pTl8M9mC-2bg52Y" name="Page-3">
    <mxGraphModel dx="1056" dy="-447" grid="1" gridSize="10" guides="1" tooltips="1" connect="1" arrows="1" fold="1" page="1" pageScale="1" pageWidth="1654" pageHeight="1169" math="0" shadow="0">
      <root>
        <mxCell id="0" />
        <mxCell id="1" parent="0" />
        <mxCell id="OPyH6j2vzuD1ZJ4FGGT_-3" style="edgeStyle=orthogonalEdgeStyle;rounded=1;orthogonalLoop=1;jettySize=auto;html=1;exitX=0.065;exitY=0.012;exitDx=0;exitDy=0;entryX=0.164;entryY=-0.021;entryDx=0;entryDy=0;entryPerimeter=0;exitPerimeter=0;endSize=10;" parent="1" source="OPyH6j2vzuD1ZJ4FGGT_-4" target="OPyH6j2vzuD1ZJ4FGGT_-4" edge="1">
          <mxGeometry relative="1" as="geometry">
            <mxPoint x="291.61999999999995" y="1670" as="targetPoint" />
            <Array as="points">
              <mxPoint x="231.62" y="1680" />
              <mxPoint x="231.62" y="1630" />
              <mxPoint x="292.61999999999995" y="1630" />
              <mxPoint x="292.61999999999995" y="1670" />
              <mxPoint x="291.61999999999995" y="1670" />
            </Array>
          </mxGeometry>
        </mxCell>
        <mxCell id="OPyH6j2vzuD1ZJ4FGGT_-4" value="Placer + FHIR Server" style="rounded=0;whiteSpace=wrap;html=1;gradientColor=#eb6f6a;fillColor=#f8cdca;strokeColor=#cf8480;fontSize=20;" parent="1" vertex="1">
          <mxGeometry x="191.62" y="1680" width="610" height="110" as="geometry" />
        </mxCell>
        <mxCell id="OPyH6j2vzuD1ZJ4FGGT_-5" value="Filler + FHIR Server" style="rounded=0;whiteSpace=wrap;html=1;gradientColor=#b4b4b4;fillColor=default;strokeColor=#7e7e7e;fontSize=20;spacingLeft=21;" parent="1" vertex="1">
          <mxGeometry x="311.61999999999995" y="1910" width="490" height="80" as="geometry" />
        </mxCell>
        <mxCell id="OPyH6j2vzuD1ZJ4FGGT_-6" value="1" style="ellipse;whiteSpace=wrap;html=1;fontStyle=1;fontSize=25;fillColor=#f8cdca;strokeColor=#cf8480;rounded=0;gradientColor=#eb6f6a;" parent="1" vertex="1">
          <mxGeometry x="201.62" y="1798" width="43" height="43" as="geometry" />
        </mxCell>
        <mxCell id="OPyH6j2vzuD1ZJ4FGGT_-7" value="2" style="ellipse;whiteSpace=wrap;html=1;fontStyle=1;fontSize=25;fillColor=#f8c321;strokeColor=#e8b130;rounded=0;gradientColor=#fea601;" parent="1" vertex="1">
          <mxGeometry x="244.62" y="1631" width="43" height="43" as="geometry" />
        </mxCell>
        <mxCell id="OPyH6j2vzuD1ZJ4FGGT_-8" value="Create &lt;i&gt;Request&lt;/i&gt;" style="text;html=1;strokeColor=none;fillColor=default;align=center;verticalAlign=middle;whiteSpace=wrap;rounded=0;fontSize=16;fontStyle=0" parent="1" vertex="1">
          <mxGeometry x="193.12" y="1850" width="60" height="30" as="geometry" />
        </mxCell>
        <mxCell id="OPyH6j2vzuD1ZJ4FGGT_-9" value="Create &lt;i&gt;Task&lt;br&gt;&#39;proposal&#39;&lt;br&gt;&lt;/i&gt;" style="text;html=1;strokeColor=none;fillColor=default;align=center;verticalAlign=middle;whiteSpace=wrap;rounded=0;fontSize=16;fontStyle=0" parent="1" vertex="1">
          <mxGeometry x="236.12" y="1588" width="60" height="30" as="geometry" />
        </mxCell>
        <mxCell id="OPyH6j2vzuD1ZJ4FGGT_-10" style="edgeStyle=orthogonalEdgeStyle;orthogonalLoop=1;jettySize=auto;html=1;exitX=0;exitY=1;exitDx=0;exitDy=0;entryX=0.103;entryY=0.993;entryDx=0;entryDy=0;entryPerimeter=0;rounded=1;endSize=10;" parent="1" source="OPyH6j2vzuD1ZJ4FGGT_-4" target="OPyH6j2vzuD1ZJ4FGGT_-4" edge="1">
          <mxGeometry relative="1" as="geometry">
            <Array as="points">
              <mxPoint x="191.62" y="1850" />
              <mxPoint x="254.61999999999998" y="1850" />
            </Array>
          </mxGeometry>
        </mxCell>
        <mxCell id="OPyH6j2vzuD1ZJ4FGGT_-11" style="edgeStyle=orthogonalEdgeStyle;rounded=1;orthogonalLoop=1;jettySize=auto;html=1;exitX=0.065;exitY=0.012;exitDx=0;exitDy=0;entryX=0.164;entryY=-0.021;entryDx=0;entryDy=0;entryPerimeter=0;exitPerimeter=0;endSize=10;" parent="1" edge="1">
          <mxGeometry relative="1" as="geometry">
            <mxPoint x="551.68" y="1678" as="targetPoint" />
            <mxPoint x="491.6799999999999" y="1681" as="sourcePoint" />
            <Array as="points">
              <mxPoint x="491.6799999999999" y="1680" />
              <mxPoint x="491.6799999999999" y="1630" />
              <mxPoint x="552.68" y="1630" />
              <mxPoint x="552.68" y="1670" />
              <mxPoint x="551.68" y="1670" />
            </Array>
          </mxGeometry>
        </mxCell>
        <mxCell id="OPyH6j2vzuD1ZJ4FGGT_-12" value="6" style="ellipse;whiteSpace=wrap;html=1;fontStyle=1;fontSize=25;fillColor=#f8c321;strokeColor=#e8b130;rounded=0;gradientColor=#fea601;" parent="1" vertex="1">
          <mxGeometry x="504.6799999999999" y="1631" width="43" height="43" as="geometry" />
        </mxCell>
        <mxCell id="OPyH6j2vzuD1ZJ4FGGT_-13" value="Act accordingly" style="text;html=1;strokeColor=none;fillColor=default;align=center;verticalAlign=middle;whiteSpace=wrap;rounded=0;fontSize=16;fontStyle=0" parent="1" vertex="1">
          <mxGeometry x="463.45999999999987" y="1598" width="125.44" height="30" as="geometry" />
        </mxCell>
        <mxCell id="OPyH6j2vzuD1ZJ4FGGT_-14" style="edgeStyle=orthogonalEdgeStyle;rounded=1;orthogonalLoop=1;jettySize=auto;html=1;exitX=0.065;exitY=0.012;exitDx=0;exitDy=0;entryX=1;entryY=0.25;entryDx=0;entryDy=0;exitPerimeter=0;dashed=1;endSize=10;" parent="1" target="OPyH6j2vzuD1ZJ4FGGT_-4" edge="1">
          <mxGeometry relative="1" as="geometry">
            <mxPoint x="842.4" y="1678" as="targetPoint" />
            <mxPoint x="782.4" y="1681" as="sourcePoint" />
            <Array as="points">
              <mxPoint x="782.62" y="1630" />
              <mxPoint x="843.62" y="1630" />
              <mxPoint x="843.62" y="1708" />
            </Array>
          </mxGeometry>
        </mxCell>
        <mxCell id="OPyH6j2vzuD1ZJ4FGGT_-15" value="10" style="ellipse;whiteSpace=wrap;html=1;fontStyle=1;fontSize=25;fillColor=#f8c321;strokeColor=#e8b130;rounded=0;gradientColor=#fea601;" parent="1" vertex="1">
          <mxGeometry x="731.62" y="1630" width="43" height="43" as="geometry" />
        </mxCell>
        <mxCell id="OPyH6j2vzuD1ZJ4FGGT_-16" value="Update &lt;i&gt;Request &lt;/i&gt;completed" style="text;html=1;strokeColor=none;fillColor=default;align=center;verticalAlign=middle;whiteSpace=wrap;rounded=0;fontSize=16;fontStyle=0" parent="1" vertex="1">
          <mxGeometry x="811.62" y="1650" width="70" height="29" as="geometry" />
        </mxCell>
        <mxCell id="OPyH6j2vzuD1ZJ4FGGT_-17" value="Act accordingly" style="text;html=1;strokeColor=none;fillColor=default;align=center;verticalAlign=middle;whiteSpace=wrap;rounded=0;fontSize=16;fontStyle=0" parent="1" vertex="1">
          <mxGeometry x="438.62999999999994" y="2051" width="115.97" height="30" as="geometry" />
        </mxCell>
        <mxCell id="OPyH6j2vzuD1ZJ4FGGT_-18" style="edgeStyle=orthogonalEdgeStyle;orthogonalLoop=1;jettySize=auto;html=1;exitX=0;exitY=1;exitDx=0;exitDy=0;entryX=0.103;entryY=0.993;entryDx=0;entryDy=0;entryPerimeter=0;rounded=1;endSize=10;" parent="1" edge="1">
          <mxGeometry relative="1" as="geometry">
            <mxPoint x="474.1499999999999" y="1991" as="sourcePoint" />
            <mxPoint x="537.15" y="1990" as="targetPoint" />
            <Array as="points">
              <mxPoint x="474.1499999999999" y="2051" />
              <mxPoint x="537.15" y="2051" />
            </Array>
          </mxGeometry>
        </mxCell>
        <mxCell id="OPyH6j2vzuD1ZJ4FGGT_-19" value="5" style="ellipse;whiteSpace=wrap;html=1;fontStyle=1;fontSize=25;fillColor=#f8c321;strokeColor=#e8b130;rounded=0;gradientColor=#fea601;" parent="1" vertex="1">
          <mxGeometry x="484.11999999999995" y="2000" width="43" height="43" as="geometry" />
        </mxCell>
        <mxCell id="OPyH6j2vzuD1ZJ4FGGT_-20" value="4" style="ellipse;whiteSpace=wrap;html=1;fontStyle=1;fontSize=25;fillColor=#f8c321;strokeColor=#e8b130;rounded=0;gradientColor=#fea601;" parent="1" vertex="1">
          <mxGeometry x="414.11999999999995" y="1910" width="43" height="43" as="geometry" />
        </mxCell>
        <mxCell id="OPyH6j2vzuD1ZJ4FGGT_-21" value="8" style="ellipse;whiteSpace=wrap;html=1;fontStyle=1;fontSize=25;fillColor=#f8c321;strokeColor=#e8b130;rounded=0;gradientColor=#fea601;" parent="1" vertex="1">
          <mxGeometry x="700.62" y="1920" width="43" height="43" as="geometry" />
        </mxCell>
        <mxCell id="OPyH6j2vzuD1ZJ4FGGT_-22" value="3" style="ellipse;whiteSpace=wrap;html=1;fontStyle=1;fontSize=25;fillColor=#f8c321;strokeColor=#e8b130;rounded=0;gradientColor=#fea601;" parent="1" vertex="1">
          <mxGeometry x="318.61999999999995" y="1740" width="43" height="43" as="geometry" />
        </mxCell>
        <mxCell id="OPyH6j2vzuD1ZJ4FGGT_-23" value="9" style="ellipse;whiteSpace=wrap;html=1;fontStyle=1;fontSize=25;fillColor=#f8c321;strokeColor=#e8b130;rounded=0;gradientColor=#fea601;" parent="1" vertex="1">
          <mxGeometry x="750.62" y="1740" width="43" height="43" as="geometry" />
        </mxCell>
        <mxCell id="OPyH6j2vzuD1ZJ4FGGT_-24" value="7" style="ellipse;whiteSpace=wrap;html=1;fontStyle=1;fontSize=25;fillColor=#f8c321;strokeColor=#e8b130;rounded=0;gradientColor=#fea601;" parent="1" vertex="1">
          <mxGeometry x="632.12" y="1806" width="43" height="43" as="geometry" />
        </mxCell>
        <mxCell id="OPyH6j2vzuD1ZJ4FGGT_-25" style="edgeStyle=orthogonalEdgeStyle;rounded=1;orthogonalLoop=1;jettySize=auto;html=1;exitX=0.065;exitY=0.012;exitDx=0;exitDy=0;entryX=0.164;entryY=-0.021;entryDx=0;entryDy=0;entryPerimeter=0;exitPerimeter=0;endSize=10;" parent="1" edge="1">
          <mxGeometry relative="1" as="geometry">
            <mxPoint x="678.68" y="1907" as="targetPoint" />
            <mxPoint x="618.68" y="1910" as="sourcePoint" />
            <Array as="points">
              <mxPoint x="618.68" y="1909" />
              <mxPoint x="618.68" y="1859" />
              <mxPoint x="679.68" y="1859" />
              <mxPoint x="679.68" y="1899" />
              <mxPoint x="678.68" y="1899" />
            </Array>
          </mxGeometry>
        </mxCell>
        <mxCell id="OPyH6j2vzuD1ZJ4FGGT_-26" value="Create &lt;i&gt;Events&lt;/i&gt;" style="text;html=1;strokeColor=none;fillColor=default;align=center;verticalAlign=middle;whiteSpace=wrap;rounded=0;fontSize=16;fontStyle=0" parent="1" vertex="1">
          <mxGeometry x="623.62" y="1862" width="55" height="30" as="geometry" />
        </mxCell>
        <mxCell id="OPyH6j2vzuD1ZJ4FGGT_-27" style="edgeStyle=orthogonalEdgeStyle;rounded=0;orthogonalLoop=1;jettySize=auto;html=1;exitX=0.25;exitY=1;exitDx=0;exitDy=0;entryX=0.065;entryY=-0.04;entryDx=0;entryDy=0;entryPerimeter=0;endSize=10;" parent="1" source="OPyH6j2vzuD1ZJ4FGGT_-4" target="OPyH6j2vzuD1ZJ4FGGT_-5" edge="1">
          <mxGeometry relative="1" as="geometry" />
        </mxCell>
        <mxCell id="OPyH6j2vzuD1ZJ4FGGT_-28" value="Notify" style="text;html=1;strokeColor=none;fillColor=default;align=center;verticalAlign=middle;whiteSpace=wrap;rounded=0;fontSize=16;fontStyle=0" parent="1" vertex="1">
          <mxGeometry x="313.61999999999995" y="1832" width="37.97" height="30" as="geometry" />
        </mxCell>
        <mxCell id="OPyH6j2vzuD1ZJ4FGGT_-29" style="edgeStyle=orthogonalEdgeStyle;rounded=0;orthogonalLoop=1;jettySize=auto;html=1;exitX=0.163;exitY=-0.028;exitDx=0;exitDy=0;entryX=0.329;entryY=1.018;entryDx=0;entryDy=0;entryPerimeter=0;endSize=10;exitPerimeter=0;" parent="1" edge="1">
          <mxGeometry relative="1" as="geometry">
            <mxPoint x="378.49000000000007" y="1908.7600000000002" as="sourcePoint" />
            <mxPoint x="379.31000000000023" y="1792.98" as="targetPoint" />
          </mxGeometry>
        </mxCell>
        <mxCell id="OPyH6j2vzuD1ZJ4FGGT_-30" style="edgeStyle=orthogonalEdgeStyle;rounded=0;orthogonalLoop=1;jettySize=auto;html=1;exitX=0.163;exitY=-0.028;exitDx=0;exitDy=0;entryX=0.329;entryY=1.018;entryDx=0;entryDy=0;entryPerimeter=0;endSize=10;exitPerimeter=0;" parent="1" edge="1">
          <mxGeometry relative="1" as="geometry">
            <mxPoint x="439.61999999999995" y="1906" as="sourcePoint" />
            <mxPoint x="440.61999999999995" y="1790" as="targetPoint" />
          </mxGeometry>
        </mxCell>
        <mxCell id="OPyH6j2vzuD1ZJ4FGGT_-31" style="edgeStyle=orthogonalEdgeStyle;rounded=0;orthogonalLoop=1;jettySize=auto;html=1;exitX=0.163;exitY=-0.028;exitDx=0;exitDy=0;entryX=0.329;entryY=1.018;entryDx=0;entryDy=0;entryPerimeter=0;endSize=10;exitPerimeter=0;" parent="1" edge="1">
          <mxGeometry relative="1" as="geometry">
            <mxPoint x="721.38" y="1906" as="sourcePoint" />
            <mxPoint x="722.38" y="1790" as="targetPoint" />
          </mxGeometry>
        </mxCell>
        <mxCell id="OPyH6j2vzuD1ZJ4FGGT_-32" style="edgeStyle=orthogonalEdgeStyle;rounded=0;orthogonalLoop=1;jettySize=auto;html=1;exitX=0.25;exitY=1;exitDx=0;exitDy=0;entryX=0.065;entryY=-0.04;entryDx=0;entryDy=0;entryPerimeter=0;endSize=10;" parent="1" edge="1">
          <mxGeometry relative="1" as="geometry">
            <mxPoint x="771.5300000000001" y="1793" as="sourcePoint" />
            <mxPoint x="771.5300000000001" y="1910" as="targetPoint" />
          </mxGeometry>
        </mxCell>
        <mxCell id="OPyH6j2vzuD1ZJ4FGGT_-33" value="GET &lt;i&gt;Task&lt;/i&gt;" style="text;html=1;strokeColor=none;fillColor=default;align=center;verticalAlign=middle;whiteSpace=wrap;rounded=0;fontSize=16;fontStyle=0" parent="1" vertex="1">
          <mxGeometry x="368.61999999999995" y="1832" width="32.97" height="30" as="geometry" />
        </mxCell>
        <mxCell id="OPyH6j2vzuD1ZJ4FGGT_-34" value="PUT&lt;br&gt;Accepted&lt;br&gt;&amp;nbsp;&lt;i&gt;Task&lt;/i&gt;" style="text;html=1;strokeColor=none;fillColor=default;align=center;verticalAlign=middle;whiteSpace=wrap;rounded=0;fontSize=16;fontStyle=0" parent="1" vertex="1">
          <mxGeometry x="414.11999999999995" y="1824" width="55" height="52" as="geometry" />
        </mxCell>
        <mxCell id="OPyH6j2vzuD1ZJ4FGGT_-35" value="PUT&lt;br&gt;&lt;i&gt;Task&lt;br&gt;completed&lt;br&gt;&lt;/i&gt;" style="text;html=1;strokeColor=none;fillColor=default;align=center;verticalAlign=middle;whiteSpace=wrap;rounded=0;fontSize=16;fontStyle=0" parent="1" vertex="1">
          <mxGeometry x="694.62" y="1824" width="55" height="52" as="geometry" />
        </mxCell>
        <mxCell id="OPyH6j2vzuD1ZJ4FGGT_-36" value="Create&lt;br&gt;Task &#39;order&#39;" style="text;html=1;strokeColor=none;fillColor=default;align=center;verticalAlign=middle;whiteSpace=wrap;rounded=0;fontSize=16;fontStyle=0" parent="1" vertex="1">
          <mxGeometry x="476.79999999999995" y="1862" width="63.8" height="30" as="geometry" />
        </mxCell>
        <mxCell id="OPyH6j2vzuD1ZJ4FGGT_-37" style="edgeStyle=orthogonalEdgeStyle;orthogonalLoop=1;jettySize=auto;html=1;exitX=0;exitY=1;exitDx=0;exitDy=0;entryX=0.103;entryY=0.993;entryDx=0;entryDy=0;entryPerimeter=0;rounded=1;endSize=10;" parent="1" edge="1">
          <mxGeometry relative="1" as="geometry">
            <mxPoint x="479.30999999999995" y="1790" as="sourcePoint" />
            <mxPoint x="542.31" y="1789" as="targetPoint" />
            <Array as="points">
              <mxPoint x="479.30999999999995" y="1850" />
              <mxPoint x="542.31" y="1850" />
            </Array>
          </mxGeometry>
        </mxCell>
        <mxCell id="OPyH6j2vzuD1ZJ4FGGT_-38" value="4a" style="ellipse;whiteSpace=wrap;html=1;fontStyle=1;fontSize=25;fillColor=#f8c321;strokeColor=#e8b130;rounded=0;gradientColor=#fea601;" parent="1" vertex="1">
          <mxGeometry x="489.28" y="1799" width="43" height="43" as="geometry" />
        </mxCell>
        <mxCell id="OPyH6j2vzuD1ZJ4FGGT_-39" value="3" style="ellipse;whiteSpace=wrap;html=1;fontStyle=1;fontSize=25;fillColor=#f8c321;strokeColor=#e8b130;rounded=0;gradientColor=#fea601;" parent="1" vertex="1">
          <mxGeometry x="543.72" y="1740" width="43" height="43" as="geometry" />
        </mxCell>
        <mxCell id="OPyH6j2vzuD1ZJ4FGGT_-40" style="edgeStyle=orthogonalEdgeStyle;rounded=0;orthogonalLoop=1;jettySize=auto;html=1;exitX=0.25;exitY=1;exitDx=0;exitDy=0;entryX=0.065;entryY=-0.04;entryDx=0;entryDy=0;entryPerimeter=0;endSize=10;" parent="1" edge="1">
          <mxGeometry relative="1" as="geometry">
            <mxPoint x="565.69" y="1790" as="sourcePoint" />
            <mxPoint x="564.69" y="1907" as="targetPoint" />
          </mxGeometry>
        </mxCell>
        <mxCell id="OPyH6j2vzuD1ZJ4FGGT_-41" value="Notify" style="text;html=1;strokeColor=none;fillColor=default;align=center;verticalAlign=middle;whiteSpace=wrap;rounded=0;fontSize=16;fontStyle=0" parent="1" vertex="1">
          <mxGeometry x="538.6800000000001" y="1853" width="47.91" height="30" as="geometry" />
        </mxCell>
        <mxCell id="OPyH6j2vzuD1ZJ4FGGT_-42" style="edgeStyle=orthogonalEdgeStyle;rounded=0;orthogonalLoop=1;jettySize=auto;html=1;exitX=0.163;exitY=-0.028;exitDx=0;exitDy=0;entryX=0.329;entryY=1.018;entryDx=0;entryDy=0;entryPerimeter=0;endSize=10;exitPerimeter=0;" parent="1" edge="1">
          <mxGeometry relative="1" as="geometry">
            <mxPoint x="592.5900000000001" y="1905.7800000000002" as="sourcePoint" />
            <mxPoint x="593.4100000000003" y="1790" as="targetPoint" />
          </mxGeometry>
        </mxCell>
        <mxCell id="OPyH6j2vzuD1ZJ4FGGT_-43" value="GET &lt;i&gt;Task&lt;/i&gt;" style="text;html=1;strokeColor=none;fillColor=default;align=center;verticalAlign=middle;whiteSpace=wrap;rounded=0;fontSize=16;fontStyle=0" parent="1" vertex="1">
          <mxGeometry x="582.72" y="1829.02" width="32.97" height="30" as="geometry" />
        </mxCell>
        <mxCell id="r2lBXSpXEbrMaE7eomOK-1" value="B-1: Workflow with placer confirmation, using intent (new Task)" style="text;html=1;strokeColor=none;fillColor=default;align=left;verticalAlign=middle;whiteSpace=wrap;rounded=0;fontSize=25;fontStyle=1" parent="1" vertex="1">
          <mxGeometry x="193.12" y="1520" width="476.88" height="30" as="geometry" />
        </mxCell>
        <mxCell id="ktXCHMk0Fnd8yjb-X_jm-1" value="GET &lt;i&gt;Events&lt;/i&gt;" style="text;html=1;strokeColor=none;fillColor=default;align=center;verticalAlign=middle;whiteSpace=wrap;rounded=0;fontSize=16;fontStyle=0" parent="1" vertex="1">
          <mxGeometry x="760.62" y="1824" width="33" height="30" as="geometry" />
        </mxCell>
      </root>
    </mxGraphModel>
  </diagram>
</mxfile>
